<?xml version="1.0" standalone="no"?>
<!DOCTYPE svg PUBLIC "-//W3C//DTD SVG 20010904//EN"
 "http://www.w3.org/TR/2001/REC-SVG-20010904/DTD/svg10.dtd">
<svg version="1.0" xmlns="http://www.w3.org/2000/svg"
 width="512.000000pt" height="512.000000pt" viewBox="0 0 512.000000 512.000000"
 preserveAspectRatio="xMidYMid meet">

<g transform="translate(0.000000,512.000000) scale(0.100000,-0.100000)"
fill="#ffdd" stroke="none">
<path d="M2385 4866 c-199 -39 -366 -129 -506 -273 -120 -123 -229 -309 -231
-395 -2 -59 78 -101 125 -65 9 6 30 45 46 85 70 169 210 323 370 406 130 67
219 89 366 89 150 0 226 -17 365 -85 93 -45 115 -61 200 -147 78 -78 105 -113
143 -188 69 -135 90 -220 90 -373 0 -186 -45 -327 -153 -478 -22 -31 -40 -67
-40 -81 0 -58 56 -93 112 -70 64 26 182 245 225 417 23 93 23 331 0 424 -47
190 -140 351 -276 481 -128 122 -257 195 -421 237 -107 28 -311 36 -415 16z"/>
<path d="M2402 4540 c-215 -57 -394 -229 -456 -439 -23 -78 -21 -123 7 -149
53 -50 128 -14 141 68 12 75 64 170 130 236 103 103 228 151 366 141 216 -15
389 -163 440 -375 16 -70 8 -191 -18 -264 -81 -228 -334 -363 -565 -303 -80
21 -112 19 -137 -7 -26 -28 -26 -82 -1 -107 52 -52 254 -76 385 -47 237 53
426 236 486 472 87 338 -124 687 -466 774 -98 25 -215 25 -312 0z"/>
<path d="M2505 4295 c-14 -13 -25 -33 -25 -45 0 -13 -7 -20 -18 -20 -32 0 -98
-56 -121 -102 -43 -90 -15 -194 67 -252 35 -25 53 -30 128 -35 68 -5 89 -10
98 -24 8 -12 8 -22 0 -35 -9 -14 -32 -18 -143 -22 -125 -5 -134 -6 -152 -29
-26 -32 -24 -77 6 -106 19 -20 34 -25 77 -25 50 0 54 -2 68 -33 29 -62 111
-62 140 0 10 21 25 34 42 38 45 10 104 61 127 107 43 90 15 194 -68 253 -38
27 -52 31 -138 35 -77 4 -98 8 -107 23 -8 12 -8 22 0 35 9 14 32 18 143 22
125 5 134 6 152 29 26 32 24 77 -6 106 -20 21 -34 25 -80 25 -43 0 -55 3 -55
15 0 27 -47 65 -80 65 -19 0 -40 -9 -55 -25z"/>
<path d="M1013 4075 c-129 -23 -272 -82 -378 -155 -68 -47 -169 -144 -222
-214 -63 -83 -137 -242 -165 -351 -31 -127 -31 -323 0 -449 66 -265 248 -500
480 -621 58 -30 89 -29 122 7 20 22 25 52 14 83 -4 9 -43 40 -88 70 -264 175
-406 468 -369 764 42 331 265 591 588 683 113 32 296 32 409 0 153 -44 269
-114 379 -231 103 -109 164 -227 197 -379 21 -95 41 -122 90 -122 15 0 40 10
55 22 26 20 27 25 23 83 -3 33 -21 107 -40 163 -154 449 -632 731 -1095 647z"/>
<path d="M1042 3740 c-113 -30 -206 -84 -292 -170 -203 -202 -247 -497 -113
-753 50 -97 163 -209 259 -260 83 -43 101 -45 138 -16 20 16 26 29 26 58 0 44
-19 64 -99 107 -107 57 -202 183 -230 304 -59 256 97 509 354 575 337 86 654
-221 581 -564 -13 -64 -14 -77 -1 -101 16 -31 33 -40 76 -40 60 0 87 58 96
206 26 426 -382 762 -795 654z"/>
<path d="M1145 3495 c-14 -13 -25 -33 -25 -45 0 -13 -7 -20 -18 -20 -32 0 -98
-56 -121 -102 -43 -90 -15 -194 67 -252 35 -25 53 -30 128 -35 68 -5 89 -10
98 -24 8 -12 8 -22 0 -35 -9 -14 -32 -18 -143 -22 -125 -5 -134 -6 -152 -29
-26 -32 -24 -77 6 -106 19 -20 34 -25 77 -25 50 0 54 -2 68 -33 29 -62 111
-62 140 0 10 21 25 34 42 38 45 10 104 61 127 107 43 90 15 194 -68 253 -38
27 -52 31 -138 35 -77 4 -98 8 -107 23 -8 12 -8 22 0 35 9 14 32 18 143 22
125 5 134 6 152 29 26 32 24 77 -6 106 -20 21 -34 25 -80 25 -43 0 -55 3 -55
15 0 27 -47 65 -80 65 -19 0 -40 -9 -55 -25z"/>
<path d="M2265 3095 l-25 -24 0 -1391 0 -1391 25 -24 24 -25 1271 0 1271 0 24
25 25 24 0 1391 0 1391 -25 24 -24 25 -1271 0 -1271 0 -24 -25z m2135 -775 l0
-320 -840 0 -840 0 0 320 0 320 840 0 840 0 0 -320z m-1440 -880 l0 -80 -120
0 -120 0 0 80 0 80 120 0 120 0 0 -80z m720 0 l0 -80 -120 0 -120 0 0 80 0 80
120 0 120 0 0 -80z m720 0 l0 -80 -120 0 -120 0 0 80 0 80 120 0 120 0 0 -80z
m-1440 -640 l0 -80 -120 0 -120 0 0 80 0 80 120 0 120 0 0 -80z m720 0 l0 -80
-120 0 -120 0 0 80 0 80 120 0 120 0 0 -80z m720 0 l0 -80 -120 0 -120 0 0 80
0 80 120 0 120 0 0 -80z"/>
<path d="M1650 2701 c-195 -43 -333 -116 -473 -250 -118 -112 -195 -235 -246
-386 -199 -601 223 -1224 854 -1261 140 -9 243 7 273 41 37 43 28 96 -20 121
-23 12 -39 13 -85 4 -159 -29 -362 11 -518 102 -91 53 -230 192 -283 283 -52
90 -91 206 -105 317 -20 161 20 347 105 493 53 91 192 230 283 283 144 84 328
124 485 105 121 -14 160 4 160 72 0 69 -38 85 -215 91 -102 3 -148 0 -215 -15z"/>
<path d="M1682 2380 c-228 -61 -404 -239 -462 -466 -88 -345 134 -701 486
-780 83 -18 226 -15 297 6 73 22 98 81 56 134 -23 30 -39 31 -139 14 -259 -45
-512 138 -552 400 -31 200 74 407 254 496 113 57 172 64 364 40 47 -6 52 -4
72 21 27 34 28 79 3 104 -30 30 -85 42 -201 47 -83 3 -120 0 -178 -16z"/>
<path d="M1785 2135 c-14 -13 -25 -31 -25 -39 0 -8 -13 -17 -29 -21 -47 -10
-107 -59 -130 -107 -43 -90 -15 -194 68 -253 38 -27 52 -31 138 -35 77 -4 98
-8 107 -23 8 -12 8 -22 0 -35 -9 -14 -32 -18 -143 -22 -125 -5 -134 -6 -152
-29 -26 -32 -24 -77 6 -106 19 -20 34 -25 77 -25 50 0 54 -2 68 -33 29 -62
111 -62 140 0 10 21 25 34 42 38 45 10 104 61 127 107 43 90 15 194 -68 253
-38 27 -52 31 -138 35 -77 4 -98 8 -107 23 -8 12 -8 22 0 35 9 14 32 18 143
22 125 5 134 6 152 29 26 32 24 77 -6 106 -20 21 -34 25 -80 25 -43 0 -55 3
-55 15 0 27 -47 65 -80 65 -19 0 -40 -9 -55 -25z"/>
</g>
</svg>
